<svg version="1.1" xmlns="http://www.w3.org/2000/svg" viewBox="0 0 2460 780" width="2460" height="780">
  <!-- svg-source:excalidraw -->
  
  <defs>
    <style class="style-fonts">
      @font-face {
        font-family: "Virgil";
        src: url("https://excalidraw.com/Virgil.woff2");
      }
      @font-face {
        font-family: "Cascadia";
        src: url("https://excalidraw.com/Cascadia.woff2");
      }
      @font-face {
        font-family: "Assistant";
        src: url("https://excalidraw.com/Assistant-Regular.woff2");
      }
    </style>
    
  </defs>
  <rect x="0" y="0" width="2460" height="780" fill="#ffffff"></rect><g stroke-linecap="round" transform="translate(1190 130) rotate(0 630 320)"><path d="M0 0 L1260 0 L1260 640 L0 640" stroke="none" stroke-width="0" fill="#e9ecef"></path><path d="M0 0 C391.75 0, 783.5 0, 1260 0 M0 0 C299.05 0, 598.11 0, 1260 0 M1260 0 C1260 246.45, 1260 492.91, 1260 640 M1260 0 C1260 139.24, 1260 278.48, 1260 640 M1260 640 C766.58 640, 273.16 640, 0 640 M1260 640 C901.14 640, 542.28 640, 0 640 M0 640 C0 474.01, 0 308.02, 0 0 M0 640 C0 416.82, 0 193.63, 0 0" stroke="#1e1e1e" stroke-width="2" fill="none"></path></g><g stroke-linecap="round" transform="translate(310 130) rotate(0 280 320)"><path d="M0 0 L560 0 L560 640 L0 640" stroke="none" stroke-width="0" fill="#e9ecef"></path><path d="M0 0 C117.95 0, 235.9 0, 560 0 M0 0 C135.11 0, 270.21 0, 560 0 M560 0 C560 187.34, 560 374.69, 560 640 M560 0 C560 217.06, 560 434.12, 560 640 M560 640 C443.44 640, 326.88 640, 0 640 M560 640 C357.63 640, 155.26 640, 0 640 M0 640 C0 449.42, 0 258.84, 0 0 M0 640 C0 384.26, 0 128.51, 0 0" stroke="#1e1e1e" stroke-width="2" fill="none"></path></g><g stroke-linecap="round" transform="translate(10 210) rotate(0 100 250)"><path d="M0 0 L200 0 L200 500 L0 500" stroke="none" stroke-width="0" fill="#b2f2bb"></path><path d="M0 0 C47.48 0, 94.96 0, 200 0 M0 0 C73.35 0, 146.7 0, 200 0 M200 0 C200 167.66, 200 335.32, 200 500 M200 0 C200 123.79, 200 247.58, 200 500 M200 500 C129.19 500, 58.38 500, 0 500 M200 500 C125.38 500, 50.75 500, 0 500 M0 500 C0 344.46, 0 188.93, 0 0 M0 500 C0 395.55, 0 291.1, 0 0" stroke="#1e1e1e" stroke-width="2" fill="none"></path></g><g transform="translate(82.765625 443.90000000000003) rotate(0 27.234375 16.099999999999994)"><text x="27.234375" y="0" font-family="Helvetica, Segoe UI Emoji" font-size="28px" fill="#1e1e1e" text-anchor="middle" style="white-space: pre;" direction="ltr" dominant-baseline="text-before-edge">user</text></g><g stroke-linecap="round" transform="translate(590 190.7612895023031) rotate(0 100 40)"><path d="M0 0 L200 0 L200 80 L0 80" stroke="none" stroke-width="0" fill="#a5d8ff"></path><path d="M0 0 C74.44 0, 148.88 0, 200 0 M0 0 C66.47 0, 132.94 0, 200 0 M200 0 C200 20.49, 200 40.98, 200 80 M200 0 C200 17.36, 200 34.71, 200 80 M200 80 C142.25 80, 84.5 80, 0 80 M200 80 C143.05 80, 86.09 80, 0 80 M0 80 C0 56.62, 0 33.24, 0 0 M0 80 C0 54.27, 0 28.53, 0 0" stroke="#1e1e1e" stroke-width="2" fill="none"></path></g><g transform="translate(648.7451171875 214.6612895023031) rotate(0 41.2548828125 16.10000000000001)"><text x="41.2548828125" y="0" font-family="Helvetica, Segoe UI Emoji" font-size="28px" fill="#1e1e1e" text-anchor="middle" style="white-space: pre;" direction="ltr" dominant-baseline="text-before-edge">signup</text></g><g stroke-linecap="round" transform="translate(590 330.7612895023031) rotate(0 100 40)"><path d="M0 0 L200 0 L200 80 L0 80" stroke="none" stroke-width="0" fill="#a5d8ff"></path><path d="M0 0 C73 0, 146 0, 200 0 M0 0 C64.34 0, 128.68 0, 200 0 M200 0 C200 18.4, 200 36.79, 200 80 M200 0 C200 28.46, 200 56.93, 200 80 M200 80 C138.88 80, 77.76 80, 0 80 M200 80 C122.69 80, 45.38 80, 0 80 M0 80 C0 53.48, 0 26.97, 0 0 M0 80 C0 60.62, 0 41.24, 0 0" stroke="#1e1e1e" stroke-width="2" fill="none"></path></g><g transform="translate(660.4208984375 354.6612895023031) rotate(0 29.5791015625 16.099999999999994)"><text x="29.5791015625" y="0" font-family="Helvetica, Segoe UI Emoji" font-size="28px" fill="#1e1e1e" text-anchor="middle" style="white-space: pre;" direction="ltr" dominant-baseline="text-before-edge">login</text></g><g stroke-linecap="round"><g transform="translate(211 250.73292687091038) rotate(0 189 -0.12102738101290811)"><path d="M0 0 C117.32 -0.08, 234.63 -0.15, 378 -0.24 M0 0 C97.57 -0.06, 195.14 -0.12, 378 -0.24" stroke="#1e1e1e" stroke-width="2" fill="none"></path></g><g transform="translate(211 250.73292687091038) rotate(0 189 -0.12102738101290811)"><path d="M378 -0.24 L364.41 6.11 L364.4 -6.57 L378 -0.24" stroke="none" stroke-width="0" fill="#1e1e1e" fill-rule="evenodd"></path><path d="M378 -0.24 C373.78 1.73, 369.56 3.7, 364.41 6.11 M378 -0.24 C374.49 1.4, 370.98 3.04, 364.41 6.11 M364.41 6.11 C364.41 2, 364.4 -2.1, 364.4 -6.57 M364.41 6.11 C364.41 1.23, 364.4 -3.65, 364.4 -6.57 M364.4 -6.57 C367.52 -5.12, 370.65 -3.67, 378 -0.24 M364.4 -6.57 C368.97 -4.45, 373.54 -2.32, 378 -0.24 M378 -0.24 C378 -0.24, 378 -0.24, 378 -0.24 M378 -0.24 C378 -0.24, 378 -0.24, 378 -0.24" stroke="#1e1e1e" stroke-width="2" fill="none"></path></g></g><mask></mask><g stroke-linecap="round"><g transform="translate(211 370.0916983156901) rotate(0 189 0.26420195045898254)"><path d="M0 0 C124.59 0.17, 249.17 0.35, 378 0.53 M0 0 C124.34 0.17, 248.68 0.35, 378 0.53" stroke="#1e1e1e" stroke-width="2" fill="none"></path></g><g transform="translate(211 370.0916983156901) rotate(0 189 0.26420195045898254)"><path d="M378 0.53 L364.4 6.85 L364.41 -5.83 L378 0.53" stroke="none" stroke-width="0" fill="#1e1e1e" fill-rule="evenodd"></path><path d="M378 0.53 C373.52 2.61, 369.03 4.69, 364.4 6.85 M378 0.53 C373.53 2.61, 369.05 4.69, 364.4 6.85 M364.4 6.85 C364.4 3.63, 364.41 0.42, 364.41 -5.83 M364.4 6.85 C364.4 2.61, 364.41 -1.63, 364.41 -5.83 M364.41 -5.83 C369.3 -3.54, 374.19 -1.26, 378 0.53 M364.41 -5.83 C369.19 -3.6, 373.96 -1.36, 378 0.53 M378 0.53 C378 0.53, 378 0.53, 378 0.53 M378 0.53 C378 0.53, 378 0.53, 378 0.53" stroke="#1e1e1e" stroke-width="2" fill="none"></path></g></g><mask></mask><g transform="translate(590 150.7612895023031) rotate(0 222.3388671875 11.5)"><text x="0" y="0" font-family="Helvetica, Segoe UI Emoji" font-size="20px" fill="#e03131" text-anchor="start" style="white-space: pre;" direction="ltr" dominant-baseline="text-before-edge">gather info from user (refer the openapi reference)</text></g><g transform="translate(610 290.7612895023031) rotate(0 115.068359375 11.5)"><text x="0" y="0" font-family="Helvetica, Segoe UI Emoji" font-size="20px" fill="#e03131" text-anchor="start" style="white-space: pre;" direction="ltr" dominant-baseline="text-before-edge">user_name and password</text></g><g stroke-linecap="round" transform="translate(1250 210.7612895023031) rotate(0 100 250.00000000000003)"><path d="M0 0 L200 0 L200 500 L0 500" stroke="none" stroke-width="0" fill="#ffec99"></path><path d="M0 0 C69.76 0, 139.53 0, 200 0 M0 0 C69.77 0, 139.55 0, 200 0 M200 0 C200 117.8, 200 235.6, 200 500 M200 0 C200 173.12, 200 346.25, 200 500 M200 500 C133.5 500, 67 500, 0 500 M200 500 C143.82 500, 87.65 500, 0 500 M0 500 C0 314.18, 0 128.36, 0 0 M0 500 C0 359.73, 0 219.45, 0 0" stroke="#1e1e1e" stroke-width="2" fill="none"></path></g><g transform="translate(1281.5107421875 444.66128950230313) rotate(0 68.4892578125 16.099999999999994)"><text x="68.4892578125" y="0" font-family="Helvetica, Segoe UI Emoji" font-size="28px" fill="#1e1e1e" text-anchor="middle" style="white-space: pre;" direction="ltr" dominant-baseline="text-before-edge">backend-lb</text></g><g stroke-linecap="round" transform="translate(590 470.7612895023031) rotate(0 100 39.99999999999997)"><path d="M0 0 L200 0 L200 80 L0 80" stroke="none" stroke-width="0" fill="#a5d8ff"></path><path d="M0 0 C77.07 0, 154.14 0, 200 0 M0 0 C74.43 0, 148.87 0, 200 0 M200 0 C200 17, 200 34, 200 80 M200 0 C200 24.61, 200 49.22, 200 80 M200 80 C134.37 80, 68.74 80, 0 80 M200 80 C129.59 80, 59.18 80, 0 80 M0 80 C0 53.07, 0 26.14, 0 0 M0 80 C0 58.39, 0 36.77, 0 0" stroke="#1e1e1e" stroke-width="2" fill="none"></path></g><g transform="translate(617.6142578125 494.6612895023031) rotate(0 72.3857421875 16.099999999999994)"><text x="72.3857421875" y="0" font-family="Helvetica, Segoe UI Emoji" font-size="28px" fill="#1e1e1e" text-anchor="middle" style="white-space: pre;" direction="ltr" dominant-baseline="text-before-edge">img_upload</text></g><g stroke-linecap="round"><g transform="translate(211 510.15452912100045) rotate(0 188.9999999999999 0.23941067237200286)"><path d="M0 0 C128.95 0.16, 257.89 0.33, 378 0.48 M0 0 C107.31 0.14, 214.62 0.27, 378 0.48" stroke="#1e1e1e" stroke-width="2" fill="none"></path></g><g transform="translate(211 510.15452912100045) rotate(0 188.9999999999999 0.23941067237200286)"><path d="M378 0.48 L364.4 6.8 L364.41 -5.88 L378 0.48" stroke="none" stroke-width="0" fill="#1e1e1e" fill-rule="evenodd"></path><path d="M378 0.48 C373.36 2.64, 368.72 4.79, 364.4 6.8 M378 0.48 C374.14 2.27, 370.28 4.07, 364.4 6.8 M364.4 6.8 C364.4 2.62, 364.41 -1.56, 364.41 -5.88 M364.4 6.8 C364.4 3.09, 364.41 -0.62, 364.41 -5.88 M364.41 -5.88 C367.54 -4.42, 370.66 -2.96, 378 0.48 M364.41 -5.88 C368.75 -3.85, 373.08 -1.82, 378 0.48 M378 0.48 C378 0.48, 378 0.48, 378 0.48 M378 0.48 C378 0.48, 378 0.48, 378 0.48" stroke="#1e1e1e" stroke-width="2" fill="none"></path></g></g><mask></mask><g stroke-linecap="round" transform="translate(590 630.761289502303) rotate(0 100 40)"><path d="M0 0 L200 0 L200 80 L0 80" stroke="none" stroke-width="0" fill="#a5d8ff"></path><path d="M0 0 C53.53 0, 107.07 0, 200 0 M0 0 C45.71 0, 91.42 0, 200 0 M200 0 C200 26.61, 200 53.21, 200 80 M200 0 C200 27.89, 200 55.79, 200 80 M200 80 C145.28 80, 90.57 80, 0 80 M200 80 C131.35 80, 62.71 80, 0 80 M0 80 C0 58.76, 0 37.52, 0 0 M0 80 C0 61.74, 0 43.48, 0 0" stroke="#1e1e1e" stroke-width="2" fill="none"></path></g><g transform="translate(634.7314453125 654.661289502303) rotate(0 55.2685546875 16.100000000000023)"><text x="55.2685546875" y="0" font-family="Helvetica, Segoe UI Emoji" font-size="28px" fill="#1e1e1e" text-anchor="middle" style="white-space: pre;" direction="ltr" dominant-baseline="text-before-edge">get_pred</text></g><g stroke-linecap="round"><g transform="translate(211 670.2132188652864) rotate(0 188.9999999999999 0.21625334111928396)"><path d="M0 0 C78.91 0.09, 157.82 0.18, 378 0.43 M0 0 C148.37 0.17, 296.74 0.34, 378 0.43" stroke="#1e1e1e" stroke-width="2" fill="none"></path></g><g transform="translate(211 670.2132188652864) rotate(0 188.9999999999999 0.21625334111928396)"><path d="M378 0.43 L364.4 6.76 L364.41 -5.92 L378 0.43" stroke="none" stroke-width="0" fill="#1e1e1e" fill-rule="evenodd"></path><path d="M378 0.43 C375.16 1.75, 372.32 3.07, 364.4 6.76 M378 0.43 C372.66 2.91, 367.32 5.4, 364.4 6.76 M364.4 6.76 C364.4 3.34, 364.41 -0.08, 364.41 -5.92 M364.4 6.76 C364.4 2.88, 364.41 -1, 364.41 -5.92 M364.41 -5.92 C368.91 -3.82, 373.4 -1.72, 378 0.43 M364.41 -5.92 C367.78 -4.35, 371.15 -2.77, 378 0.43 M378 0.43 C378 0.43, 378 0.43, 378 0.43 M378 0.43 C378 0.43, 378 0.43, 378 0.43" stroke="#1e1e1e" stroke-width="2" fill="none"></path></g></g><mask></mask><g transform="translate(630 430.7612895023031) rotate(0 90.0390625 11.5)"><text x="0" y="0" font-family="Helvetica, Segoe UI Emoji" font-size="20px" fill="#e03131" text-anchor="start" style="white-space: pre;" direction="ltr" dominant-baseline="text-before-edge">after session is valid</text></g><g transform="translate(630 590.761289502303) rotate(0 90.0390625 11.5)"><text x="0" y="0" font-family="Helvetica, Segoe UI Emoji" font-size="20px" fill="#e03131" text-anchor="start" style="white-space: pre;" direction="ltr" dominant-baseline="text-before-edge">after session is valid</text></g><g mask="url(#mask-doyhD1e0tcmDJv4WqzhP5)" stroke-linecap="round"><g transform="translate(790 250.7612895023031) rotate(0 230 0)"><path d="M0 0 C180 0, 360 0, 460 0 M0 0 C181.82 0, 363.65 0, 460 0" stroke="#1e1e1e" stroke-width="2" fill="none"></path></g><g transform="translate(790 250.7612895023031) rotate(0 230 0)"><path d="M460 0 L446.41 6.34 L446.41 -6.34 L460 0" stroke="none" stroke-width="0" fill="#1e1e1e" fill-rule="evenodd"></path><path d="M460 0 C454.68 2.48, 449.36 4.96, 446.41 6.34 M460 0 C454.63 2.51, 449.25 5.01, 446.41 6.34 M446.41 6.34 C446.41 3.41, 446.41 0.47, 446.41 -6.34 M446.41 6.34 C446.41 3.43, 446.41 0.52, 446.41 -6.34 M446.41 -6.34 C451.35 -4.03, 456.29 -1.73, 460 0 M446.41 -6.34 C450.62 -4.37, 454.84 -2.41, 460 0 M460 0 C460 0, 460 0, 460 0 M460 0 C460 0, 460 0, 460 0" stroke="#1e1e1e" stroke-width="2" fill="none"></path></g></g><mask id="mask-doyhD1e0tcmDJv4WqzhP5"><rect x="0" y="0" fill="#fff" width="1350" height="350.7612895023031"></rect><rect x="949.951171875" y="239.2612895023031" fill="#000" width="140.09765625" height="23" opacity="1"></rect></mask><g transform="translate(949.951171875 239.2612895023031) rotate(0 70.048828125 11.5)"><text x="70.048828125" y="0" font-family="Helvetica, Segoe UI Emoji" font-size="20px" fill="#1e1e1e" text-anchor="middle" style="white-space: pre;" direction="ltr" dominant-baseline="text-before-edge">/account/signup</text></g><g mask="url(#mask-wJHjn2tizbQOVxLqqLtVK)" stroke-linecap="round"><g transform="translate(790 370.7612895023031) rotate(0 230 0)"><path d="M0 0 C129.87 0, 259.75 0, 460 0 M0 0 C95.76 0, 191.52 0, 460 0" stroke="#1e1e1e" stroke-width="2" fill="none"></path></g><g transform="translate(790 370.7612895023031) rotate(0 230 0)"><path d="M460 0 L446.41 6.34 L446.41 -6.34 L460 0" stroke="none" stroke-width="0" fill="#1e1e1e" fill-rule="evenodd"></path><path d="M460 0 C456.16 1.79, 452.32 3.58, 446.41 6.34 M460 0 C457.17 1.32, 454.34 2.64, 446.41 6.34 M446.41 6.34 C446.41 2.57, 446.41 -1.2, 446.41 -6.34 M446.41 6.34 C446.41 2.29, 446.41 -1.77, 446.41 -6.34 M446.41 -6.34 C451.35 -4.03, 456.29 -1.73, 460 0 M446.41 -6.34 C451.48 -3.97, 456.56 -1.61, 460 0 M460 0 C460 0, 460 0, 460 0 M460 0 C460 0, 460 0, 460 0" stroke="#1e1e1e" stroke-width="2" fill="none"></path></g></g><mask id="mask-wJHjn2tizbQOVxLqqLtVK"><rect x="0" y="0" fill="#fff" width="1350" height="470.7612895023031"></rect><rect x="958.291015625" y="359.2612895023031" fill="#000" width="123.41796875" height="23" opacity="1"></rect></mask><g transform="translate(958.291015625 359.2612895023031) rotate(0 61.708984375 11.5)"><text x="61.708984375" y="0" font-family="Helvetica, Segoe UI Emoji" font-size="20px" fill="#1e1e1e" text-anchor="middle" style="white-space: pre;" direction="ltr" dominant-baseline="text-before-edge">/account/login</text></g><g mask="url(#mask-NKafrGYK7oX27haogloDf)" stroke-linecap="round"><g transform="translate(790 510.76128950230304) rotate(0 230 0)"><path d="M0 0 C110.16 0, 220.31 0, 460 0 M0 0 C161.45 0, 322.89 0, 460 0" stroke="#1e1e1e" stroke-width="2" fill="none"></path></g><g transform="translate(790 510.76128950230304) rotate(0 230 0)"><path d="M460 0 L446.41 6.34 L446.41 -6.34 L460 0" stroke="none" stroke-width="0" fill="#1e1e1e" fill-rule="evenodd"></path><path d="M460 0 C456.74 1.52, 453.49 3.04, 446.41 6.34 M460 0 C455.23 2.22, 450.46 4.45, 446.41 6.34 M446.41 6.34 C446.41 2.28, 446.41 -1.79, 446.41 -6.34 M446.41 6.34 C446.41 2.4, 446.41 -1.54, 446.41 -6.34 M446.41 -6.34 C449.43 -4.93, 452.46 -3.52, 460 0 M446.41 -6.34 C450.1 -4.61, 453.8 -2.89, 460 0 M460 0 C460 0, 460 0, 460 0 M460 0 C460 0, 460 0, 460 0" stroke="#1e1e1e" stroke-width="2" fill="none"></path></g></g><mask id="mask-NKafrGYK7oX27haogloDf"><rect x="0" y="0" fill="#fff" width="1350" height="610.761289502303"></rect><rect x="957.177734375" y="499.26128950230304" fill="#000" width="125.64453125" height="23" opacity="1"></rect></mask><g transform="translate(957.177734375 499.26128950230304) rotate(0 62.822265625 11.5)"><text x="62.822265625" y="0" font-family="Helvetica, Segoe UI Emoji" font-size="20px" fill="#1e1e1e" text-anchor="middle" style="white-space: pre;" direction="ltr" dominant-baseline="text-before-edge">/image/upload</text></g><g mask="url(#mask-cC_oj6sNegUg3-5Pu8_eM)" stroke-linecap="round"><g transform="translate(790 670.761289502303) rotate(0 230 0)"><path d="M0 0 C176.38 0, 352.76 0, 460 0 M0 0 C167.57 0, 335.13 0, 460 0" stroke="#1e1e1e" stroke-width="2" fill="none"></path></g><g transform="translate(790 670.761289502303) rotate(0 230 0)"><path d="M460 0 L446.41 6.34 L446.41 -6.34 L460 0" stroke="none" stroke-width="0" fill="#1e1e1e" fill-rule="evenodd"></path><path d="M460 0 C454.79 2.43, 449.57 4.86, 446.41 6.34 M460 0 C455.05 2.31, 450.1 4.62, 446.41 6.34 M446.41 6.34 C446.41 3.6, 446.41 0.86, 446.41 -6.34 M446.41 6.34 C446.41 2.97, 446.41 -0.41, 446.41 -6.34 M446.41 -6.34 C451.66 -3.89, 456.91 -1.44, 460 0 M446.41 -6.34 C449.71 -4.8, 453.02 -3.25, 460 0 M460 0 C460 0, 460 0, 460 0 M460 0 C460 0, 460 0, 460 0" stroke="#1e1e1e" stroke-width="2" fill="none"></path></g></g><mask id="mask-cC_oj6sNegUg3-5Pu8_eM"><rect x="0" y="0" fill="#fff" width="1350" height="770.761289502303"></rect><rect x="947.744140625" y="659.261289502303" fill="#000" width="144.51171875" height="23" opacity="1"></rect></mask><g transform="translate(947.744140625 659.261289502303) rotate(0 72.255859375 11.5)"><text x="72.255859375" y="0" font-family="Helvetica, Segoe UI Emoji" font-size="20px" fill="#1e1e1e" text-anchor="middle" style="white-space: pre;" direction="ltr" dominant-baseline="text-before-edge">/recommend/get</text></g><g transform="translate(1050 10) rotate(0 201.7763671875 16.099999999999998)"><text x="0" y="0" font-family="Helvetica, Segoe UI Emoji" font-size="28px" fill="#1e1e1e" text-anchor="start" style="white-space: pre;" direction="ltr" dominant-baseline="text-before-edge">Crop Yield Monitor Major Project</text></g><g transform="translate(342.32440932063355 433.9172819262685) rotate(0 56.0341796875 16.099999999999994)"><text x="0" y="0" font-family="Helvetica, Segoe UI Emoji" font-size="28px" fill="#1e1e1e" text-anchor="start" style="white-space: pre;" direction="ltr" dominant-baseline="text-before-edge">Frontend</text></g><g stroke-linecap="round" transform="translate(1590 210) rotate(0 120 70)"><path d="M0 0 L240 0 L240 140 L0 140" stroke="none" stroke-width="0" fill="#eebefa"></path><path d="M0 0 C90.62 0, 181.23 0, 240 0 M0 0 C50.6 0, 101.2 0, 240 0 M240 0 C240 45.1, 240 90.2, 240 140 M240 0 C240 54.33, 240 108.67, 240 140 M240 140 C171.76 140, 103.53 140, 0 140 M240 140 C172.33 140, 104.65 140, 0 140 M0 140 C0 108.24, 0 76.48, 0 0 M0 140 C0 110.28, 0 80.56, 0 0" stroke="#1e1e1e" stroke-width="2" fill="none"></path></g><g transform="translate(1621.26953125 247.8) rotate(0 88.73046875 32.19999999999999)"><text x="88.73046875" y="0" font-family="Helvetica, Segoe UI Emoji" font-size="28px" fill="#1e1e1e" text-anchor="middle" style="white-space: pre;" direction="ltr" dominant-baseline="text-before-edge">Authentication</text><text x="88.73046875" y="32.199999999999996" font-family="Helvetica, Segoe UI Emoji" font-size="28px" fill="#1e1e1e" text-anchor="middle" style="white-space: pre;" direction="ltr" dominant-baseline="text-before-edge">server</text></g><g stroke-linecap="round" transform="translate(1590 390) rotate(0 120 70)"><path d="M0 0 L240 0 L240 140 L0 140" stroke="none" stroke-width="0" fill="#eebefa"></path><path d="M0 0 C80.22 0, 160.43 0, 240 0 M0 0 C61.44 0, 122.88 0, 240 0 M240 0 C240 51.55, 240 103.1, 240 140 M240 0 C240 42.63, 240 85.26, 240 140 M240 140 C191.68 140, 143.36 140, 0 140 M240 140 C167.18 140, 94.35 140, 0 140 M0 140 C0 107.66, 0 75.33, 0 0 M0 140 C0 87.69, 0 35.37, 0 0" stroke="#1e1e1e" stroke-width="2" fill="none"></path></g><g transform="translate(1671.08984375 427.8) rotate(0 38.91015625 32.19999999999999)"><text x="38.91015625" y="0" font-family="Helvetica, Segoe UI Emoji" font-size="28px" fill="#1e1e1e" text-anchor="middle" style="white-space: pre;" direction="ltr" dominant-baseline="text-before-edge">Image</text><text x="38.91015625" y="32.199999999999996" font-family="Helvetica, Segoe UI Emoji" font-size="28px" fill="#1e1e1e" text-anchor="middle" style="white-space: pre;" direction="ltr" dominant-baseline="text-before-edge">server</text></g><g stroke-linecap="round" transform="translate(1590 570) rotate(0 120 70)"><path d="M0 0 L240 0 L240 140 L0 140" stroke="none" stroke-width="0" fill="#eebefa"></path><path d="M0 0 C54.55 0, 109.1 0, 240 0 M0 0 C84.01 0, 168.02 0, 240 0 M240 0 C240 37.54, 240 75.07, 240 140 M240 0 C240 50.4, 240 100.8, 240 140 M240 140 C159.79 140, 79.58 140, 0 140 M240 140 C157.76 140, 75.51 140, 0 140 M0 140 C0 104.7, 0 69.4, 0 0 M0 140 C0 96.76, 0 53.52, 0 0" stroke="#1e1e1e" stroke-width="2" fill="none"></path></g><g transform="translate(1600.2763671875 607.8) rotate(0 109.7236328125 32.19999999999999)"><text x="109.7236328125" y="0" font-family="Helvetica, Segoe UI Emoji" font-size="28px" fill="#1e1e1e" text-anchor="middle" style="white-space: pre;" direction="ltr" dominant-baseline="text-before-edge">Recommendation</text><text x="109.7236328125" y="32.199999999999996" font-family="Helvetica, Segoe UI Emoji" font-size="28px" fill="#1e1e1e" text-anchor="middle" style="white-space: pre;" direction="ltr" dominant-baseline="text-before-edge">server</text></g><g stroke-linecap="round" transform="translate(1950 210) rotate(0 80 70)"><path d="M160 70 C160 72.61, 159.83 75.24, 159.5 77.84 C159.16 80.43, 158.66 83.03, 157.99 85.58 C157.33 88.12, 156.5 90.65, 155.51 93.12 C154.52 95.59, 153.37 98.02, 152.08 100.37 C150.78 102.73, 149.33 105.03, 147.74 107.24 C146.15 109.45, 144.41 111.6, 142.55 113.64 C140.68 115.69, 138.68 117.65, 136.57 119.5 C134.46 121.34, 132.21 123.1, 129.88 124.73 C127.54 126.36, 125.09 127.88, 122.56 129.27 C120.03 130.66, 117.4 131.93, 114.71 133.07 C112.02 134.2, 109.24 135.21, 106.42 136.07 C103.6 136.93, 100.71 137.66, 97.8 138.24 C94.89 138.83, 91.92 139.27, 88.96 139.56 C85.99 139.85, 82.99 140, 80 140 C77.01 140, 74.01 139.85, 71.04 139.56 C68.08 139.27, 65.11 138.83, 62.2 138.24 C59.29 137.66, 56.4 136.93, 53.58 136.07 C50.76 135.21, 47.98 134.2, 45.29 133.07 C42.6 131.93, 39.97 130.66, 37.44 129.27 C34.91 127.88, 32.46 126.36, 30.12 124.73 C27.79 123.1, 25.54 121.34, 23.43 119.5 C21.32 117.65, 19.32 115.69, 17.45 113.64 C15.59 111.6, 13.85 109.45, 12.26 107.24 C10.67 105.03, 9.22 102.73, 7.92 100.37 C6.63 98.02, 5.48 95.59, 4.49 93.12 C3.5 90.65, 2.67 88.12, 2.01 85.58 C1.34 83.03, 0.84 80.43, 0.5 77.84 C0.17 75.24, 0 72.61, 0 70 C0 67.39, 0.17 64.76, 0.5 62.16 C0.84 59.57, 1.34 56.97, 2.01 54.42 C2.67 51.88, 3.5 49.35, 4.49 46.88 C5.48 44.41, 6.63 41.98, 7.92 39.63 C9.22 37.27, 10.67 34.97, 12.26 32.76 C13.85 30.55, 15.59 28.4, 17.45 26.36 C19.32 24.31, 21.32 22.35, 23.43 20.5 C25.54 18.66, 27.79 16.9, 30.12 15.27 C32.46 13.64, 34.91 12.12, 37.44 10.73 C39.97 9.34, 42.6 8.07, 45.29 6.93 C47.98 5.8, 50.76 4.79, 53.58 3.93 C56.4 3.07, 59.29 2.34, 62.2 1.76 C65.11 1.17, 68.08 0.73, 71.04 0.44 C74.01 0.15, 77.01 0, 80 0 C82.99 0, 85.99 0.15, 88.96 0.44 C91.92 0.73, 94.89 1.17, 97.8 1.76 C100.71 2.34, 103.6 3.07, 106.42 3.93 C109.24 4.79, 112.02 5.8, 114.71 6.93 C117.4 8.07, 120.03 9.34, 122.56 10.73 C125.09 12.12, 127.54 13.64, 129.88 15.27 C132.21 16.9, 134.46 18.66, 136.57 20.5 C138.68 22.35, 140.68 24.31, 142.55 26.36 C144.41 28.4, 146.15 30.55, 147.74 32.76 C149.33 34.97, 150.78 37.27, 152.08 39.63 C153.37 41.98, 154.52 44.41, 155.51 46.88 C156.5 49.35, 157.33 51.88, 157.99 54.42 C158.66 56.97, 159.16 59.57, 159.5 62.16 C159.83 64.76, 159.92 68.69, 160 70 C160.08 71.31, 160.08 68.69, 160 70" stroke="none" stroke-width="0" fill="#ffd8a8"></path><path d="M160 70 C160 72.61, 159.83 75.24, 159.5 77.84 C159.16 80.43, 158.66 83.03, 157.99 85.58 C157.33 88.12, 156.5 90.65, 155.51 93.12 C154.52 95.59, 153.37 98.02, 152.08 100.37 C150.78 102.73, 149.33 105.03, 147.74 107.24 C146.15 109.45, 144.41 111.6, 142.55 113.64 C140.68 115.69, 138.68 117.65, 136.57 119.5 C134.46 121.34, 132.21 123.1, 129.88 124.73 C127.54 126.36, 125.09 127.88, 122.56 129.27 C120.03 130.66, 117.4 131.93, 114.71 133.07 C112.02 134.2, 109.24 135.21, 106.42 136.07 C103.6 136.93, 100.71 137.66, 97.8 138.24 C94.89 138.83, 91.92 139.27, 88.96 139.56 C85.99 139.85, 82.99 140, 80 140 C77.01 140, 74.01 139.85, 71.04 139.56 C68.08 139.27, 65.11 138.83, 62.2 138.24 C59.29 137.66, 56.4 136.93, 53.58 136.07 C50.76 135.21, 47.98 134.2, 45.29 133.07 C42.6 131.93, 39.97 130.66, 37.44 129.27 C34.91 127.88, 32.46 126.36, 30.12 124.73 C27.79 123.1, 25.54 121.34, 23.43 119.5 C21.32 117.65, 19.32 115.69, 17.45 113.64 C15.59 111.6, 13.85 109.45, 12.26 107.24 C10.67 105.03, 9.22 102.73, 7.92 100.37 C6.63 98.02, 5.48 95.59, 4.49 93.12 C3.5 90.65, 2.67 88.12, 2.01 85.58 C1.34 83.03, 0.84 80.43, 0.5 77.84 C0.17 75.24, 0 72.61, 0 70 C0 67.39, 0.17 64.76, 0.5 62.16 C0.84 59.57, 1.34 56.97, 2.01 54.42 C2.67 51.88, 3.5 49.35, 4.49 46.88 C5.48 44.41, 6.63 41.98, 7.92 39.63 C9.22 37.27, 10.67 34.97, 12.26 32.76 C13.85 30.55, 15.59 28.4, 17.45 26.36 C19.32 24.31, 21.32 22.35, 23.43 20.5 C25.54 18.66, 27.79 16.9, 30.12 15.27 C32.46 13.64, 34.91 12.12, 37.44 10.73 C39.97 9.34, 42.6 8.07, 45.29 6.93 C47.98 5.8, 50.76 4.79, 53.58 3.93 C56.4 3.07, 59.29 2.34, 62.2 1.76 C65.11 1.17, 68.08 0.73, 71.04 0.44 C74.01 0.15, 77.01 0, 80 0 C82.99 0, 85.99 0.15, 88.96 0.44 C91.92 0.73, 94.89 1.17, 97.8 1.76 C100.71 2.34, 103.6 3.07, 106.42 3.93 C109.24 4.79, 112.02 5.8, 114.71 6.93 C117.4 8.07, 120.03 9.34, 122.56 10.73 C125.09 12.12, 127.54 13.64, 129.88 15.27 C132.21 16.9, 134.46 18.66, 136.57 20.5 C138.68 22.35, 140.68 24.31, 142.55 26.36 C144.41 28.4, 146.15 30.55, 147.74 32.76 C149.33 34.97, 150.78 37.27, 152.08 39.63 C153.37 41.98, 154.52 44.41, 155.51 46.88 C156.5 49.35, 157.33 51.88, 157.99 54.42 C158.66 56.97, 159.16 59.57, 159.5 62.16 C159.83 64.76, 159.92 68.69, 160 70 C160.08 71.31, 160.08 68.69, 160 70" stroke="#1e1e1e" stroke-width="2" fill="none"></path></g><g transform="translate(1989.4832153175762 247.80252531694168) rotate(0 40.4482421875 32.19999999999999)"><text x="40.4482421875" y="0" font-family="Helvetica, Segoe UI Emoji" font-size="28px" fill="#1e1e1e" text-anchor="middle" style="white-space: pre;" direction="ltr" dominant-baseline="text-before-edge">Mysql </text><text x="40.4482421875" y="32.199999999999996" font-family="Helvetica, Segoe UI Emoji" font-size="28px" fill="#1e1e1e" text-anchor="middle" style="white-space: pre;" direction="ltr" dominant-baseline="text-before-edge">DB</text></g><g stroke-linecap="round" transform="translate(1950 390) rotate(0 80 70)"><path d="M160 70 C160 72.61, 159.83 75.24, 159.5 77.84 C159.16 80.43, 158.66 83.03, 157.99 85.58 C157.33 88.12, 156.5 90.65, 155.51 93.12 C154.52 95.59, 153.37 98.02, 152.08 100.37 C150.78 102.73, 149.33 105.03, 147.74 107.24 C146.15 109.45, 144.41 111.6, 142.55 113.64 C140.68 115.69, 138.68 117.65, 136.57 119.5 C134.46 121.34, 132.21 123.1, 129.88 124.73 C127.54 126.36, 125.09 127.88, 122.56 129.27 C120.03 130.66, 117.4 131.93, 114.71 133.07 C112.02 134.2, 109.24 135.21, 106.42 136.07 C103.6 136.93, 100.71 137.66, 97.8 138.24 C94.89 138.83, 91.92 139.27, 88.96 139.56 C85.99 139.85, 82.99 140, 80 140 C77.01 140, 74.01 139.85, 71.04 139.56 C68.08 139.27, 65.11 138.83, 62.2 138.24 C59.29 137.66, 56.4 136.93, 53.58 136.07 C50.76 135.21, 47.98 134.2, 45.29 133.07 C42.6 131.93, 39.97 130.66, 37.44 129.27 C34.91 127.88, 32.46 126.36, 30.12 124.73 C27.79 123.1, 25.54 121.34, 23.43 119.5 C21.32 117.65, 19.32 115.69, 17.45 113.64 C15.59 111.6, 13.85 109.45, 12.26 107.24 C10.67 105.03, 9.22 102.73, 7.92 100.37 C6.63 98.02, 5.48 95.59, 4.49 93.12 C3.5 90.65, 2.67 88.12, 2.01 85.58 C1.34 83.03, 0.84 80.43, 0.5 77.84 C0.17 75.24, 0 72.61, 0 70 C0 67.39, 0.17 64.76, 0.5 62.16 C0.84 59.57, 1.34 56.97, 2.01 54.42 C2.67 51.88, 3.5 49.35, 4.49 46.88 C5.48 44.41, 6.63 41.98, 7.92 39.63 C9.22 37.27, 10.67 34.97, 12.26 32.76 C13.85 30.55, 15.59 28.4, 17.45 26.36 C19.32 24.31, 21.32 22.35, 23.43 20.5 C25.54 18.66, 27.79 16.9, 30.12 15.27 C32.46 13.64, 34.91 12.12, 37.44 10.73 C39.97 9.34, 42.6 8.07, 45.29 6.93 C47.98 5.8, 50.76 4.79, 53.58 3.93 C56.4 3.07, 59.29 2.34, 62.2 1.76 C65.11 1.17, 68.08 0.73, 71.04 0.44 C74.01 0.15, 77.01 0, 80 0 C82.99 0, 85.99 0.15, 88.96 0.44 C91.92 0.73, 94.89 1.17, 97.8 1.76 C100.71 2.34, 103.6 3.07, 106.42 3.93 C109.24 4.79, 112.02 5.8, 114.71 6.93 C117.4 8.07, 120.03 9.34, 122.56 10.73 C125.09 12.12, 127.54 13.64, 129.88 15.27 C132.21 16.9, 134.46 18.66, 136.57 20.5 C138.68 22.35, 140.68 24.31, 142.55 26.36 C144.41 28.4, 146.15 30.55, 147.74 32.76 C149.33 34.97, 150.78 37.27, 152.08 39.63 C153.37 41.98, 154.52 44.41, 155.51 46.88 C156.5 49.35, 157.33 51.88, 157.99 54.42 C158.66 56.97, 159.16 59.57, 159.5 62.16 C159.83 64.76, 159.92 68.69, 160 70 C160.08 71.31, 160.08 68.69, 160 70" stroke="none" stroke-width="0" fill="#ffd8a8"></path><path d="M160 70 C160 72.61, 159.83 75.24, 159.5 77.84 C159.16 80.43, 158.66 83.03, 157.99 85.58 C157.33 88.12, 156.5 90.65, 155.51 93.12 C154.52 95.59, 153.37 98.02, 152.08 100.37 C150.78 102.73, 149.33 105.03, 147.74 107.24 C146.15 109.45, 144.41 111.6, 142.55 113.64 C140.68 115.69, 138.68 117.65, 136.57 119.5 C134.46 121.34, 132.21 123.1, 129.88 124.73 C127.54 126.36, 125.09 127.88, 122.56 129.27 C120.03 130.66, 117.4 131.93, 114.71 133.07 C112.02 134.2, 109.24 135.21, 106.42 136.07 C103.6 136.93, 100.71 137.66, 97.8 138.24 C94.89 138.83, 91.92 139.27, 88.96 139.56 C85.99 139.85, 82.99 140, 80 140 C77.01 140, 74.01 139.85, 71.04 139.56 C68.08 139.27, 65.11 138.83, 62.2 138.24 C59.29 137.66, 56.4 136.93, 53.58 136.07 C50.76 135.21, 47.98 134.2, 45.29 133.07 C42.6 131.93, 39.97 130.66, 37.44 129.27 C34.91 127.88, 32.46 126.36, 30.12 124.73 C27.79 123.1, 25.54 121.34, 23.43 119.5 C21.32 117.65, 19.32 115.69, 17.45 113.64 C15.59 111.6, 13.85 109.45, 12.26 107.24 C10.67 105.03, 9.22 102.73, 7.92 100.37 C6.63 98.02, 5.48 95.59, 4.49 93.12 C3.5 90.65, 2.67 88.12, 2.01 85.58 C1.34 83.03, 0.84 80.43, 0.5 77.84 C0.17 75.24, 0 72.61, 0 70 C0 67.39, 0.17 64.76, 0.5 62.16 C0.84 59.57, 1.34 56.97, 2.01 54.42 C2.67 51.88, 3.5 49.35, 4.49 46.88 C5.48 44.41, 6.63 41.98, 7.92 39.63 C9.22 37.27, 10.67 34.97, 12.26 32.76 C13.85 30.55, 15.59 28.4, 17.45 26.36 C19.32 24.31, 21.32 22.35, 23.43 20.5 C25.54 18.66, 27.79 16.9, 30.12 15.27 C32.46 13.64, 34.91 12.12, 37.44 10.73 C39.97 9.34, 42.6 8.07, 45.29 6.93 C47.98 5.8, 50.76 4.79, 53.58 3.93 C56.4 3.07, 59.29 2.34, 62.2 1.76 C65.11 1.17, 68.08 0.73, 71.04 0.44 C74.01 0.15, 77.01 0, 80 0 C82.99 0, 85.99 0.15, 88.96 0.44 C91.92 0.73, 94.89 1.17, 97.8 1.76 C100.71 2.34, 103.6 3.07, 106.42 3.93 C109.24 4.79, 112.02 5.8, 114.71 6.93 C117.4 8.07, 120.03 9.34, 122.56 10.73 C125.09 12.12, 127.54 13.64, 129.88 15.27 C132.21 16.9, 134.46 18.66, 136.57 20.5 C138.68 22.35, 140.68 24.31, 142.55 26.36 C144.41 28.4, 146.15 30.55, 147.74 32.76 C149.33 34.97, 150.78 37.27, 152.08 39.63 C153.37 41.98, 154.52 44.41, 155.51 46.88 C156.5 49.35, 157.33 51.88, 157.99 54.42 C158.66 56.97, 159.16 59.57, 159.5 62.16 C159.83 64.76, 159.92 68.69, 160 70 C160.08 71.31, 160.08 68.69, 160 70" stroke="#1e1e1e" stroke-width="2" fill="none"></path></g><g transform="translate(1995.6970825050762 427.8025253169417) rotate(0 34.234375 32.19999999999999)"><text x="34.234375" y="0" font-family="Helvetica, Segoe UI Emoji" font-size="28px" fill="#1e1e1e" text-anchor="middle" style="white-space: pre;" direction="ltr" dominant-baseline="text-before-edge">redis </text><text x="34.234375" y="32.199999999999996" font-family="Helvetica, Segoe UI Emoji" font-size="28px" fill="#1e1e1e" text-anchor="middle" style="white-space: pre;" direction="ltr" dominant-baseline="text-before-edge">DB</text></g><g stroke-linecap="round" transform="translate(1950 570) rotate(0 80 70)"><path d="M160 70 C160 72.61, 159.83 75.24, 159.5 77.84 C159.16 80.43, 158.66 83.03, 157.99 85.58 C157.33 88.12, 156.5 90.65, 155.51 93.12 C154.52 95.59, 153.37 98.02, 152.08 100.37 C150.78 102.73, 149.33 105.03, 147.74 107.24 C146.15 109.45, 144.41 111.6, 142.55 113.64 C140.68 115.69, 138.68 117.65, 136.57 119.5 C134.46 121.34, 132.21 123.1, 129.88 124.73 C127.54 126.36, 125.09 127.88, 122.56 129.27 C120.03 130.66, 117.4 131.93, 114.71 133.07 C112.02 134.2, 109.24 135.21, 106.42 136.07 C103.6 136.93, 100.71 137.66, 97.8 138.24 C94.89 138.83, 91.92 139.27, 88.96 139.56 C85.99 139.85, 82.99 140, 80 140 C77.01 140, 74.01 139.85, 71.04 139.56 C68.08 139.27, 65.11 138.83, 62.2 138.24 C59.29 137.66, 56.4 136.93, 53.58 136.07 C50.76 135.21, 47.98 134.2, 45.29 133.07 C42.6 131.93, 39.97 130.66, 37.44 129.27 C34.91 127.88, 32.46 126.36, 30.12 124.73 C27.79 123.1, 25.54 121.34, 23.43 119.5 C21.32 117.65, 19.32 115.69, 17.45 113.64 C15.59 111.6, 13.85 109.45, 12.26 107.24 C10.67 105.03, 9.22 102.73, 7.92 100.37 C6.63 98.02, 5.48 95.59, 4.49 93.12 C3.5 90.65, 2.67 88.12, 2.01 85.58 C1.34 83.03, 0.84 80.43, 0.5 77.84 C0.17 75.24, 0 72.61, 0 70 C0 67.39, 0.17 64.76, 0.5 62.16 C0.84 59.57, 1.34 56.97, 2.01 54.42 C2.67 51.88, 3.5 49.35, 4.49 46.88 C5.48 44.41, 6.63 41.98, 7.92 39.63 C9.22 37.27, 10.67 34.97, 12.26 32.76 C13.85 30.55, 15.59 28.4, 17.45 26.36 C19.32 24.31, 21.32 22.35, 23.43 20.5 C25.54 18.66, 27.79 16.9, 30.12 15.27 C32.46 13.64, 34.91 12.12, 37.44 10.73 C39.97 9.34, 42.6 8.07, 45.29 6.93 C47.98 5.8, 50.76 4.79, 53.58 3.93 C56.4 3.07, 59.29 2.34, 62.2 1.76 C65.11 1.17, 68.08 0.73, 71.04 0.44 C74.01 0.15, 77.01 0, 80 0 C82.99 0, 85.99 0.15, 88.96 0.44 C91.92 0.73, 94.89 1.17, 97.8 1.76 C100.71 2.34, 103.6 3.07, 106.42 3.93 C109.24 4.79, 112.02 5.8, 114.71 6.93 C117.4 8.07, 120.03 9.34, 122.56 10.73 C125.09 12.12, 127.54 13.64, 129.88 15.27 C132.21 16.9, 134.46 18.66, 136.57 20.5 C138.68 22.35, 140.68 24.31, 142.55 26.36 C144.41 28.4, 146.15 30.55, 147.74 32.76 C149.33 34.97, 150.78 37.27, 152.08 39.63 C153.37 41.98, 154.52 44.41, 155.51 46.88 C156.5 49.35, 157.33 51.88, 157.99 54.42 C158.66 56.97, 159.16 59.57, 159.5 62.16 C159.83 64.76, 159.92 68.69, 160 70 C160.08 71.31, 160.08 68.69, 160 70" stroke="none" stroke-width="0" fill="#ffd8a8"></path><path d="M160 70 C160 72.61, 159.83 75.24, 159.5 77.84 C159.16 80.43, 158.66 83.03, 157.99 85.58 C157.33 88.12, 156.5 90.65, 155.51 93.12 C154.52 95.59, 153.37 98.02, 152.08 100.37 C150.78 102.73, 149.33 105.03, 147.74 107.24 C146.15 109.45, 144.41 111.6, 142.55 113.64 C140.68 115.69, 138.68 117.65, 136.57 119.5 C134.46 121.34, 132.21 123.1, 129.88 124.73 C127.54 126.36, 125.09 127.88, 122.56 129.27 C120.03 130.66, 117.4 131.93, 114.71 133.07 C112.02 134.2, 109.24 135.21, 106.42 136.07 C103.6 136.93, 100.71 137.66, 97.8 138.24 C94.89 138.83, 91.92 139.27, 88.96 139.56 C85.99 139.85, 82.99 140, 80 140 C77.01 140, 74.01 139.85, 71.04 139.56 C68.08 139.27, 65.11 138.83, 62.2 138.24 C59.29 137.66, 56.4 136.93, 53.58 136.07 C50.76 135.21, 47.98 134.2, 45.29 133.07 C42.6 131.93, 39.97 130.66, 37.44 129.27 C34.91 127.88, 32.46 126.36, 30.12 124.73 C27.79 123.1, 25.54 121.34, 23.43 119.5 C21.32 117.65, 19.32 115.69, 17.45 113.64 C15.59 111.6, 13.85 109.45, 12.26 107.24 C10.67 105.03, 9.22 102.73, 7.92 100.37 C6.63 98.02, 5.48 95.59, 4.49 93.12 C3.5 90.65, 2.67 88.12, 2.01 85.58 C1.34 83.03, 0.84 80.43, 0.5 77.84 C0.17 75.24, 0 72.61, 0 70 C0 67.39, 0.17 64.76, 0.5 62.16 C0.84 59.57, 1.34 56.97, 2.01 54.42 C2.67 51.88, 3.5 49.35, 4.49 46.88 C5.48 44.41, 6.63 41.98, 7.92 39.63 C9.22 37.27, 10.67 34.97, 12.26 32.76 C13.85 30.55, 15.59 28.4, 17.45 26.36 C19.32 24.31, 21.32 22.35, 23.43 20.5 C25.54 18.66, 27.79 16.9, 30.12 15.27 C32.46 13.64, 34.91 12.12, 37.44 10.73 C39.97 9.34, 42.6 8.07, 45.29 6.93 C47.98 5.8, 50.76 4.79, 53.58 3.93 C56.4 3.07, 59.29 2.34, 62.2 1.76 C65.11 1.17, 68.08 0.73, 71.04 0.44 C74.01 0.15, 77.01 0, 80 0 C82.99 0, 85.99 0.15, 88.96 0.44 C91.92 0.73, 94.89 1.17, 97.8 1.76 C100.71 2.34, 103.6 3.07, 106.42 3.93 C109.24 4.79, 112.02 5.8, 114.71 6.93 C117.4 8.07, 120.03 9.34, 122.56 10.73 C125.09 12.12, 127.54 13.64, 129.88 15.27 C132.21 16.9, 134.46 18.66, 136.57 20.5 C138.68 22.35, 140.68 24.31, 142.55 26.36 C144.41 28.4, 146.15 30.55, 147.74 32.76 C149.33 34.97, 150.78 37.27, 152.08 39.63 C153.37 41.98, 154.52 44.41, 155.51 46.88 C156.5 49.35, 157.33 51.88, 157.99 54.42 C158.66 56.97, 159.16 59.57, 159.5 62.16 C159.83 64.76, 159.92 68.69, 160 70 C160.08 71.31, 160.08 68.69, 160 70" stroke="#1e1e1e" stroke-width="2" fill="none"></path></g><g transform="translate(1995.6970825050762 607.8025253169417) rotate(0 34.234375 32.19999999999999)"><text x="34.234375" y="0" font-family="Helvetica, Segoe UI Emoji" font-size="28px" fill="#1e1e1e" text-anchor="middle" style="white-space: pre;" direction="ltr" dominant-baseline="text-before-edge">redis </text><text x="34.234375" y="32.199999999999996" font-family="Helvetica, Segoe UI Emoji" font-size="28px" fill="#1e1e1e" text-anchor="middle" style="white-space: pre;" direction="ltr" dominant-baseline="text-before-edge">DB</text></g><g stroke-linecap="round"><g transform="translate(1450 270) rotate(0 70 0)"><path d="M0 0 C53.36 0, 106.73 0, 140 0 M0 0 C31.06 0, 62.11 0, 140 0" stroke="#1e1e1e" stroke-width="2" fill="none"></path></g><g transform="translate(1450 270) rotate(0 70 0)"><path d="M0 0 L13.59 -6.34 L13.59 6.34 L0 0" stroke="none" stroke-width="0" fill="#1e1e1e" fill-rule="evenodd"></path><path d="M0 0 C5.18 -2.42, 10.36 -4.83, 13.59 -6.34 M0 0 C3.02 -1.41, 6.03 -2.81, 13.59 -6.34 M13.59 -6.34 C13.59 -1.58, 13.59 3.18, 13.59 6.34 M13.59 -6.34 C13.59 -2.26, 13.59 1.81, 13.59 6.34 M13.59 6.34 C9.02 4.2, 4.44 2.07, 0 0 M13.59 6.34 C9.01 4.2, 4.42 2.06, 0 0 M0 0 C0 0, 0 0, 0 0 M0 0 C0 0, 0 0, 0 0" stroke="#1e1e1e" stroke-width="2" fill="none"></path></g><g transform="translate(1450 270) rotate(0 70 0)"><path d="M140 0 L126.41 6.34 L126.41 -6.34 L140 0" stroke="none" stroke-width="0" fill="#1e1e1e" fill-rule="evenodd"></path><path d="M140 0 C134.82 2.42, 129.64 4.83, 126.41 6.34 M140 0 C136.98 1.41, 133.97 2.81, 126.41 6.34 M126.41 6.34 C126.41 1.58, 126.41 -3.18, 126.41 -6.34 M126.41 6.34 C126.41 2.26, 126.41 -1.81, 126.41 -6.34 M126.41 -6.34 C130.98 -4.2, 135.56 -2.07, 140 0 M126.41 -6.34 C130.99 -4.2, 135.58 -2.06, 140 0 M140 0 C140 0, 140 0, 140 0 M140 0 C140 0, 140 0, 140 0" stroke="#1e1e1e" stroke-width="2" fill="none"></path></g></g><mask></mask><g stroke-linecap="round"><g transform="translate(1830 290) rotate(0 60 0)"><path d="M0 0 C30.29 0, 60.58 0, 120 0 M0 0 C25.61 0, 51.21 0, 120 0" stroke="#1e1e1e" stroke-width="2" fill="none"></path></g><g transform="translate(1830 290) rotate(0 60 0)"><path d="M0 0 L13.59 -6.34 L13.59 6.34 L0 0" stroke="none" stroke-width="0" fill="#1e1e1e" fill-rule="evenodd"></path><path d="M0 0 C3.43 -1.6, 6.86 -3.2, 13.59 -6.34 M0 0 C2.9 -1.35, 5.8 -2.71, 13.59 -6.34 M13.59 -6.34 C13.59 -3.45, 13.59 -0.55, 13.59 6.34 M13.59 -6.34 C13.59 -3.4, 13.59 -0.47, 13.59 6.34 M13.59 6.34 C9.44 4.4, 5.29 2.47, 0 0 M13.59 6.34 C8.37 3.9, 3.14 1.46, 0 0 M0 0 C0 0, 0 0, 0 0 M0 0 C0 0, 0 0, 0 0" stroke="#1e1e1e" stroke-width="2" fill="none"></path></g><g transform="translate(1830 290) rotate(0 60 0)"><path d="M120 0 L106.41 6.34 L106.41 -6.34 L120 0" stroke="none" stroke-width="0" fill="#1e1e1e" fill-rule="evenodd"></path><path d="M120 0 C116.57 1.6, 113.14 3.2, 106.41 6.34 M120 0 C117.1 1.35, 114.2 2.71, 106.41 6.34 M106.41 6.34 C106.41 3.45, 106.41 0.55, 106.41 -6.34 M106.41 6.34 C106.41 3.4, 106.41 0.47, 106.41 -6.34 M106.41 -6.34 C110.56 -4.4, 114.71 -2.47, 120 0 M106.41 -6.34 C111.63 -3.9, 116.86 -1.46, 120 0 M120 0 C120 0, 120 0, 120 0 M120 0 C120 0, 120 0, 120 0" stroke="#1e1e1e" stroke-width="2" fill="none"></path></g></g><mask></mask><g stroke-linecap="round"><g transform="translate(1830 470) rotate(0 60 0)"><path d="M0 0 C32.69 0, 65.37 0, 120 0 M0 0 C29.56 0, 59.12 0, 120 0" stroke="#1e1e1e" stroke-width="2" fill="none"></path></g><g transform="translate(1830 470) rotate(0 60 0)"><path d="M0 0 L13.59 -6.34 L13.59 6.34 L0 0" stroke="none" stroke-width="0" fill="#1e1e1e" fill-rule="evenodd"></path><path d="M0 0 C3.7 -1.73, 7.41 -3.45, 13.59 -6.34 M0 0 C3.35 -1.56, 6.7 -3.12, 13.59 -6.34 M13.59 -6.34 C13.59 -3.38, 13.59 -0.43, 13.59 6.34 M13.59 -6.34 C13.59 -3.52, 13.59 -0.7, 13.59 6.34 M13.59 6.34 C8.75 4.08, 3.9 1.82, 0 0 M13.59 6.34 C10.22 4.76, 6.84 3.19, 0 0 M0 0 C0 0, 0 0, 0 0 M0 0 C0 0, 0 0, 0 0" stroke="#1e1e1e" stroke-width="2" fill="none"></path></g><g transform="translate(1830 470) rotate(0 60 0)"><path d="M120 0 L106.41 6.34 L106.41 -6.34 L120 0" stroke="none" stroke-width="0" fill="#1e1e1e" fill-rule="evenodd"></path><path d="M120 0 C116.3 1.73, 112.59 3.45, 106.41 6.34 M120 0 C116.65 1.56, 113.3 3.12, 106.41 6.34 M106.41 6.34 C106.41 3.38, 106.41 0.43, 106.41 -6.34 M106.41 6.34 C106.41 3.52, 106.41 0.7, 106.41 -6.34 M106.41 -6.34 C111.25 -4.08, 116.1 -1.82, 120 0 M106.41 -6.34 C109.78 -4.76, 113.16 -3.19, 120 0 M120 0 C120 0, 120 0, 120 0 M120 0 C120 0, 120 0, 120 0" stroke="#1e1e1e" stroke-width="2" fill="none"></path></g></g><mask></mask><g stroke-linecap="round"><g transform="translate(1830 650) rotate(0 60 0)"><path d="M0 0 C40.29 0, 80.58 0, 120 0 M0 0 C34.5 0, 69.01 0, 120 0" stroke="#1e1e1e" stroke-width="2" fill="none"></path></g><g transform="translate(1830 650) rotate(0 60 0)"><path d="M0 0 L13.59 -6.34 L13.59 6.34 L0 0" stroke="none" stroke-width="0" fill="#1e1e1e" fill-rule="evenodd"></path><path d="M0 0 C4.56 -2.13, 9.13 -4.26, 13.59 -6.34 M0 0 C3.91 -1.82, 7.82 -3.65, 13.59 -6.34 M13.59 -6.34 C13.59 -2.45, 13.59 1.44, 13.59 6.34 M13.59 -6.34 C13.59 -1.3, 13.59 3.74, 13.59 6.34 M13.59 6.34 C9.02 4.21, 4.45 2.08, 0 0 M13.59 6.34 C8.57 3.99, 3.54 1.65, 0 0 M0 0 C0 0, 0 0, 0 0 M0 0 C0 0, 0 0, 0 0" stroke="#1e1e1e" stroke-width="2" fill="none"></path></g><g transform="translate(1830 650) rotate(0 60 0)"><path d="M120 0 L106.41 6.34 L106.41 -6.34 L120 0" stroke="none" stroke-width="0" fill="#1e1e1e" fill-rule="evenodd"></path><path d="M120 0 C115.44 2.13, 110.87 4.26, 106.41 6.34 M120 0 C116.09 1.82, 112.18 3.65, 106.41 6.34 M106.41 6.34 C106.41 2.45, 106.41 -1.44, 106.41 -6.34 M106.41 6.34 C106.41 1.3, 106.41 -3.74, 106.41 -6.34 M106.41 -6.34 C110.98 -4.21, 115.55 -2.08, 120 0 M106.41 -6.34 C111.43 -3.99, 116.46 -1.65, 120 0 M120 0 C120 0, 120 0, 120 0 M120 0 C120 0, 120 0, 120 0" stroke="#1e1e1e" stroke-width="2" fill="none"></path></g></g><mask></mask><g stroke-linecap="round"><g transform="translate(1450 470) rotate(0 70 0)"><path d="M0 0 C53.66 0, 107.31 0, 140 0 M0 0 C29.82 0, 59.64 0, 140 0" stroke="#1e1e1e" stroke-width="2" fill="none"></path></g><g transform="translate(1450 470) rotate(0 70 0)"><path d="M0 0 L13.59 -6.34 L13.59 6.34 L0 0" stroke="none" stroke-width="0" fill="#1e1e1e" fill-rule="evenodd"></path><path d="M0 0 C5.21 -2.43, 10.42 -4.86, 13.59 -6.34 M0 0 C2.9 -1.35, 5.79 -2.7, 13.59 -6.34 M13.59 -6.34 C13.59 -1.93, 13.59 2.47, 13.59 6.34 M13.59 -6.34 C13.59 -3.68, 13.59 -1.02, 13.59 6.34 M13.59 6.34 C9.89 4.61, 6.18 2.88, 0 0 M13.59 6.34 C9 4.2, 4.4 2.05, 0 0 M0 0 C0 0, 0 0, 0 0 M0 0 C0 0, 0 0, 0 0" stroke="#1e1e1e" stroke-width="2" fill="none"></path></g><g transform="translate(1450 470) rotate(0 70 0)"><path d="M140 0 L126.41 6.34 L126.41 -6.34 L140 0" stroke="none" stroke-width="0" fill="#1e1e1e" fill-rule="evenodd"></path><path d="M140 0 C134.79 2.43, 129.58 4.86, 126.41 6.34 M140 0 C137.1 1.35, 134.21 2.7, 126.41 6.34 M126.41 6.34 C126.41 1.93, 126.41 -2.47, 126.41 -6.34 M126.41 6.34 C126.41 3.68, 126.41 1.02, 126.41 -6.34 M126.41 -6.34 C130.11 -4.61, 133.82 -2.88, 140 0 M126.41 -6.34 C131 -4.2, 135.6 -2.05, 140 0 M140 0 C140 0, 140 0, 140 0 M140 0 C140 0, 140 0, 140 0" stroke="#1e1e1e" stroke-width="2" fill="none"></path></g></g><mask></mask><g stroke-linecap="round"><g transform="translate(1450 650) rotate(0 70 0)"><path d="M0 0 C52.02 0, 104.05 0, 140 0 M0 0 C42.88 0, 85.77 0, 140 0" stroke="#1e1e1e" stroke-width="2" fill="none"></path></g><g transform="translate(1450 650) rotate(0 70 0)"><path d="M0 0 L13.59 -6.34 L13.59 6.34 L0 0" stroke="none" stroke-width="0" fill="#1e1e1e" fill-rule="evenodd"></path><path d="M0 0 C5.05 -2.36, 10.1 -4.71, 13.59 -6.34 M0 0 C4.16 -1.94, 8.33 -3.88, 13.59 -6.34 M13.59 -6.34 C13.59 -1.43, 13.59 3.48, 13.59 6.34 M13.59 -6.34 C13.59 -1.87, 13.59 2.6, 13.59 6.34 M13.59 6.34 C10.4 4.85, 7.21 3.36, 0 0 M13.59 6.34 C9.93 4.63, 6.26 2.92, 0 0 M0 0 C0 0, 0 0, 0 0 M0 0 C0 0, 0 0, 0 0" stroke="#1e1e1e" stroke-width="2" fill="none"></path></g><g transform="translate(1450 650) rotate(0 70 0)"><path d="M140 0 L126.41 6.34 L126.41 -6.34 L140 0" stroke="none" stroke-width="0" fill="#1e1e1e" fill-rule="evenodd"></path><path d="M140 0 C134.95 2.36, 129.9 4.71, 126.41 6.34 M140 0 C135.84 1.94, 131.67 3.88, 126.41 6.34 M126.41 6.34 C126.41 1.43, 126.41 -3.48, 126.41 -6.34 M126.41 6.34 C126.41 1.87, 126.41 -2.6, 126.41 -6.34 M126.41 -6.34 C129.6 -4.85, 132.79 -3.36, 140 0 M126.41 -6.34 C130.07 -4.63, 133.74 -2.92, 140 0 M140 0 C140 0, 140 0, 140 0 M140 0 C140 0, 140 0, 140 0" stroke="#1e1e1e" stroke-width="2" fill="none"></path></g></g><mask></mask><g stroke-linecap="round" transform="translate(2170 350) rotate(0 120 130)"><path d="M0 0 L240 0 L240 260 L0 260" stroke="none" stroke-width="0" fill="#fcc2d7"></path><path d="M0 0 C92.46 0, 184.91 0, 240 0 M0 0 C51.41 0, 102.83 0, 240 0 M240 0 C240 94.09, 240 188.18, 240 260 M240 0 C240 55.83, 240 111.66, 240 260 M240 260 C153.94 260, 67.89 260, 0 260 M240 260 C185.87 260, 131.74 260, 0 260 M0 260 C0 196.3, 0 132.61, 0 0 M0 260 C0 188.86, 0 117.72, 0 0" stroke="#1e1e1e" stroke-width="2" fill="none"></path></g><g transform="translate(2177.1728515625 431.7) rotate(0 112.8271484375 48.29999999999998)"><text x="112.8271484375" y="0" font-family="Helvetica, Segoe UI Emoji" font-size="28px" fill="#1e1e1e" text-anchor="middle" style="white-space: pre;" direction="ltr" dominant-baseline="text-before-edge">ML</text><text x="112.8271484375" y="32.199999999999996" font-family="Helvetica, Segoe UI Emoji" font-size="28px" fill="#1e1e1e" text-anchor="middle" style="white-space: pre;" direction="ltr" dominant-baseline="text-before-edge">(recommendation </text><text x="112.8271484375" y="64.39999999999999" font-family="Helvetica, Segoe UI Emoji" font-size="28px" fill="#1e1e1e" text-anchor="middle" style="white-space: pre;" direction="ltr" dominant-baseline="text-before-edge">brain)</text></g><g stroke-linecap="round"><g transform="translate(1710 710) rotate(0 300 -30)"><path d="M0 0 C0 10.71, 0 21.42, 0 40 M0 0 C0 13.26, 0 26.53, 0 40 M0 40 C148.15 40, 296.3 40, 600 40 M0 40 C217.66 40, 435.31 40, 600 40 M600 40 C600 3.82, 600 -32.36, 600 -100 M600 40 C600 -10.62, 600 -61.24, 600 -100" stroke="#1e1e1e" stroke-width="2" fill="none"></path></g><g transform="translate(1710 710) rotate(0 300 -30)"><path d="M0 0 L6.34 13.59 L-6.34 13.59 L0 0" stroke="none" stroke-width="0" fill="#1e1e1e" fill-rule="evenodd"></path><path d="M0 0 C1.7 3.64, 3.39 7.28, 6.34 13.59 M0 0 C2.1 4.51, 4.2 9.02, 6.34 13.59 M6.34 13.59 C3.21 13.59, 0.08 13.59, -6.34 13.59 M6.34 13.59 C1.74 13.59, -2.86 13.59, -6.34 13.59 M-6.34 13.59 C-4.7 10.08, -3.06 6.57, 0 0 M-6.34 13.59 C-4.05 8.68, -1.76 3.76, 0 0 M0 0 C0 0, 0 0, 0 0 M0 0 C0 0, 0 0, 0 0" stroke="#1e1e1e" stroke-width="2" fill="none"></path></g><g transform="translate(1710 710) rotate(0 300 -30)"><path d="M600 -100 L606.34 -86.41 L593.66 -86.41 L600 -100" stroke="none" stroke-width="0" fill="#1e1e1e" fill-rule="evenodd"></path><path d="M600 -100 C601.7 -96.36, 603.39 -92.72, 606.34 -86.41 M600 -100 C602.1 -95.49, 604.2 -90.98, 606.34 -86.41 M606.34 -86.41 C603.21 -86.41, 600.08 -86.41, 593.66 -86.41 M606.34 -86.41 C601.74 -86.41, 597.14 -86.41, 593.66 -86.41 M593.66 -86.41 C595.3 -89.92, 596.94 -93.43, 600 -100 M593.66 -86.41 C595.95 -91.32, 598.24 -96.24, 600 -100 M600 -100 C600 -100, 600 -100, 600 -100 M600 -100 C600 -100, 600 -100, 600 -100" stroke="#1e1e1e" stroke-width="2" fill="none"></path></g></g><mask></mask></svg>
