<svg version="1.1" xmlns="http://www.w3.org/2000/svg" viewBox="0 0 2019.3994140625 842" width="2019.3994140625" height="842">
  <!-- svg-source:excalidraw -->
  
  <defs>
    <style class="style-fonts">
      @font-face {
        font-family: "Virgil";
        src: url("https://excalidraw.com/Virgil.woff2");
      }
      @font-face {
        font-family: "Cascadia";
        src: url("https://excalidraw.com/Cascadia.woff2");
      }
      @font-face {
        font-family: "Assistant";
        src: url("https://excalidraw.com/Assistant-Regular.woff2");
      }
    </style>
    
  </defs>
  <rect x="0" y="0" width="2019.3994140625" height="842" fill="#ffffff"></rect><g stroke-linecap="round" transform="translate(10 150.7612895023031) rotate(0 100 250)"><path d="M0 0 C47.48 0, 94.96 0, 200 0 M0 0 C73.35 0, 146.7 0, 200 0 M200 0 C200 167.66, 200 335.32, 200 500 M200 0 C200 123.79, 200 247.58, 200 500 M200 500 C129.19 500, 58.38 500, 0 500 M200 500 C125.38 500, 50.75 500, 0 500 M0 500 C0 344.46, 0 188.93, 0 0 M0 500 C0 395.55, 0 291.1, 0 0" stroke="#1e1e1e" stroke-width="2" fill="none"></path></g><g transform="translate(80.76787567138672 383.2612895023031) rotate(0 29.23212432861328 17.5)"><text x="29.23212432861328" y="0" font-family="Virgil, Segoe UI Emoji" font-size="28px" fill="#1e1e1e" text-anchor="middle" style="white-space: pre;" direction="ltr" dominant-baseline="text-before-edge">user</text></g><g stroke-linecap="round" transform="translate(310 130.7612895023031) rotate(0 100 40)"><path d="M0 0 C74.44 0, 148.88 0, 200 0 M0 0 C66.47 0, 132.94 0, 200 0 M200 0 C200 20.49, 200 40.98, 200 80 M200 0 C200 17.36, 200 34.71, 200 80 M200 80 C142.25 80, 84.5 80, 0 80 M200 80 C143.05 80, 86.09 80, 0 80 M0 80 C0 56.62, 0 33.24, 0 0 M0 80 C0 54.27, 0 28.53, 0 0" stroke="#1e1e1e" stroke-width="2" fill="none"></path></g><g transform="translate(370.92584228515625 153.2612895023031) rotate(0 39.07415771484375 17.5)"><text x="39.07415771484375" y="0" font-family="Virgil, Segoe UI Emoji" font-size="28px" fill="#1e1e1e" text-anchor="middle" style="white-space: pre;" direction="ltr" dominant-baseline="text-before-edge">signup</text></g><g stroke-linecap="round" transform="translate(310 270.7612895023031) rotate(0 100 40)"><path d="M0 0 C73 0, 146 0, 200 0 M0 0 C64.34 0, 128.68 0, 200 0 M200 0 C200 18.4, 200 36.79, 200 80 M200 0 C200 28.46, 200 56.93, 200 80 M200 80 C138.88 80, 77.76 80, 0 80 M200 80 C122.69 80, 45.38 80, 0 80 M0 80 C0 53.48, 0 26.97, 0 0 M0 80 C0 60.62, 0 41.24, 0 0" stroke="#1e1e1e" stroke-width="2" fill="none"></path></g><g transform="translate(381.94388580322266 293.2612895023031) rotate(0 28.056114196777344 17.5)"><text x="28.056114196777344" y="0" font-family="Virgil, Segoe UI Emoji" font-size="28px" fill="#1e1e1e" text-anchor="middle" style="white-space: pre;" direction="ltr" dominant-baseline="text-before-edge">login</text></g><g stroke-linecap="round"><g transform="translate(211 191.09351793099762) rotate(0 49.00000000000006 -0.1380134734354499)"><path d="M0 0 C30.42 -0.09, 60.83 -0.17, 98 -0.28 M0 0 C25.3 -0.07, 50.59 -0.14, 98 -0.28" stroke="#1e1e1e" stroke-width="2" fill="none"></path></g><g transform="translate(211 191.09351793099762) rotate(0 49.00000000000006 -0.1380134734354499)"><path d="M98 -0.28 L84.42 6.1 L84.39 -6.58 L98 -0.28" stroke="none" stroke-width="0" fill="#1e1e1e" fill-rule="evenodd"></path><path d="M98 -0.28 C93.79 1.7, 89.57 3.68, 84.42 6.1 M98 -0.28 C94.5 1.37, 90.99 3.02, 84.42 6.1 M84.42 6.1 C84.41 2, 84.4 -2.1, 84.39 -6.58 M84.42 6.1 C84.41 1.22, 84.4 -3.66, 84.39 -6.58 M84.39 -6.58 C87.51 -5.13, 90.64 -3.68, 98 -0.28 M84.39 -6.58 C88.96 -4.46, 93.54 -2.34, 98 -0.28 M98 -0.28 C98 -0.28, 98 -0.28, 98 -0.28 M98 -0.28 C98 -0.28, 98 -0.28, 98 -0.28" stroke="#1e1e1e" stroke-width="2" fill="none"></path></g></g><mask></mask><g stroke-linecap="round"><g transform="translate(210 310.7612895023031) rotate(0 50 0)"><path d="M0 0 C32.96 0, 65.92 0, 100 0 M0 0 C32.89 0, 65.79 0, 100 0" stroke="#1e1e1e" stroke-width="2" fill="none"></path></g><g transform="translate(210 310.7612895023031) rotate(0 50 0)"><path d="M100 0 L86.41 6.34 L86.41 -6.34 L100 0" stroke="none" stroke-width="0" fill="#1e1e1e" fill-rule="evenodd"></path><path d="M100 0 C95.52 2.09, 91.04 4.18, 86.41 6.34 M100 0 C95.53 2.09, 91.06 4.17, 86.41 6.34 M86.41 6.34 C86.41 3.13, 86.41 -0.09, 86.41 -6.34 M86.41 6.34 C86.41 2.1, 86.41 -2.14, 86.41 -6.34 M86.41 -6.34 C91.3 -4.06, 96.19 -1.78, 100 0 M86.41 -6.34 C91.18 -4.11, 95.96 -1.88, 100 0 M100 0 C100 0, 100 0, 100 0 M100 0 C100 0, 100 0, 100 0" stroke="#1e1e1e" stroke-width="2" fill="none"></path></g></g><mask></mask><g transform="translate(310 90.7612895023031) rotate(0 253.62969970703125 12.5)"><text x="0" y="0" font-family="Virgil, Segoe UI Emoji" font-size="20px" fill="#e03131" text-anchor="start" style="white-space: pre;" direction="ltr" dominant-baseline="text-before-edge">gather info from user (refer the openapi reference)</text></g><g transform="translate(330 230.7612895023031) rotate(0 123.38986206054688 12.5)"><text x="0" y="0" font-family="Virgil, Segoe UI Emoji" font-size="20px" fill="#e03131" text-anchor="start" style="white-space: pre;" direction="ltr" dominant-baseline="text-before-edge">user_name and password</text></g><g stroke-linecap="round" transform="translate(970 150.7612895023031) rotate(0 100 250)"><path d="M0 0 C69.76 0, 139.53 0, 200 0 M0 0 C69.77 0, 139.55 0, 200 0 M200 0 C200 117.8, 200 235.6, 200 500 M200 0 C200 173.12, 200 346.25, 200 500 M200 500 C133.5 500, 67 500, 0 500 M200 500 C143.82 500, 87.65 500, 0 500 M0 500 C0 314.18, 0 128.36, 0 0 M0 500 C0 359.73, 0 219.45, 0 0" stroke="#1e1e1e" stroke-width="2" fill="none"></path></g><g transform="translate(1000.9937133789062 383.2612895023031) rotate(0 69.00628662109375 17.5)"><text x="69.00628662109375" y="0" font-family="Virgil, Segoe UI Emoji" font-size="28px" fill="#1e1e1e" text-anchor="middle" style="white-space: pre;" direction="ltr" dominant-baseline="text-before-edge">backend-lb</text></g><g stroke-linecap="round" transform="translate(310 410.7612895023031) rotate(0 100 40)"><path d="M0 0 C77.07 0, 154.14 0, 200 0 M0 0 C74.43 0, 148.87 0, 200 0 M200 0 C200 17, 200 34, 200 80 M200 0 C200 24.61, 200 49.22, 200 80 M200 80 C134.37 80, 68.74 80, 0 80 M200 80 C129.59 80, 59.18 80, 0 80 M0 80 C0 53.07, 0 26.14, 0 0 M0 80 C0 58.39, 0 36.77, 0 0" stroke="#1e1e1e" stroke-width="2" fill="none"></path></g><g transform="translate(335.89768981933594 433.2612895023031) rotate(0 74.10231018066406 17.5)"><text x="74.10231018066406" y="0" font-family="Virgil, Segoe UI Emoji" font-size="28px" fill="#1e1e1e" text-anchor="middle" style="white-space: pre;" direction="ltr" dominant-baseline="text-before-edge">img_upload</text></g><g stroke-linecap="round"><g transform="translate(210 450.7612895023031) rotate(0 50 0)"><path d="M0 0 C34.11 0, 68.23 0, 100 0 M0 0 C28.39 0, 56.78 0, 100 0" stroke="#1e1e1e" stroke-width="2" fill="none"></path></g><g transform="translate(210 450.7612895023031) rotate(0 50 0)"><path d="M100 0 L86.41 6.34 L86.41 -6.34 L100 0" stroke="none" stroke-width="0" fill="#1e1e1e" fill-rule="evenodd"></path><path d="M100 0 C95.36 2.16, 90.73 4.32, 86.41 6.34 M100 0 C96.14 1.8, 92.28 3.6, 86.41 6.34 M86.41 6.34 C86.41 2.16, 86.41 -2.02, 86.41 -6.34 M86.41 6.34 C86.41 2.63, 86.41 -1.08, 86.41 -6.34 M86.41 -6.34 C89.53 -4.88, 92.65 -3.43, 100 0 M86.41 -6.34 C90.74 -4.32, 95.08 -2.29, 100 0 M100 0 C100 0, 100 0, 100 0 M100 0 C100 0, 100 0, 100 0" stroke="#1e1e1e" stroke-width="2" fill="none"></path></g></g><mask></mask><g stroke-linecap="round" transform="translate(310 570.761289502303) rotate(0 100 40)"><path d="M0 0 C53.53 0, 107.07 0, 200 0 M0 0 C45.71 0, 91.42 0, 200 0 M200 0 C200 26.61, 200 53.21, 200 80 M200 0 C200 27.89, 200 55.79, 200 80 M200 80 C145.28 80, 90.57 80, 0 80 M200 80 C131.35 80, 62.71 80, 0 80 M0 80 C0 58.76, 0 37.52, 0 0 M0 80 C0 61.74, 0 43.48, 0 0" stroke="#1e1e1e" stroke-width="2" fill="none"></path></g><g transform="translate(347.30772399902344 593.261289502303) rotate(0 62.69227600097656 17.5)"><text x="62.69227600097656" y="0" font-family="Virgil, Segoe UI Emoji" font-size="28px" fill="#1e1e1e" text-anchor="middle" style="white-space: pre;" direction="ltr" dominant-baseline="text-before-edge">get_pred</text></g><g stroke-linecap="round"><g transform="translate(210 610.761289502303) rotate(0 50 0)"><path d="M0 0 C20.88 0, 41.75 0, 100 0 M0 0 C39.25 0, 78.5 0, 100 0" stroke="#1e1e1e" stroke-width="2" fill="none"></path></g><g transform="translate(210 610.761289502303) rotate(0 50 0)"><path d="M100 0 L86.41 6.34 L86.41 -6.34 L100 0" stroke="none" stroke-width="0" fill="#1e1e1e" fill-rule="evenodd"></path><path d="M100 0 C97.16 1.32, 94.32 2.65, 86.41 6.34 M100 0 C94.66 2.49, 89.33 4.98, 86.41 6.34 M86.41 6.34 C86.41 2.92, 86.41 -0.5, 86.41 -6.34 M86.41 6.34 C86.41 2.46, 86.41 -1.42, 86.41 -6.34 M86.41 -6.34 C90.9 -4.24, 95.4 -2.15, 100 0 M86.41 -6.34 C89.77 -4.77, 93.14 -3.2, 100 0 M100 0 C100 0, 100 0, 100 0 M100 0 C100 0, 100 0, 100 0" stroke="#1e1e1e" stroke-width="2" fill="none"></path></g></g><mask></mask><g transform="translate(350 370.7612895023031) rotate(0 106.13986206054688 12.5)"><text x="0" y="0" font-family="Virgil, Segoe UI Emoji" font-size="20px" fill="#e03131" text-anchor="start" style="white-space: pre;" direction="ltr" dominant-baseline="text-before-edge">after session is valid</text></g><g transform="translate(350 530.761289502303) rotate(0 106.13986206054688 12.5)"><text x="0" y="0" font-family="Virgil, Segoe UI Emoji" font-size="20px" fill="#e03131" text-anchor="start" style="white-space: pre;" direction="ltr" dominant-baseline="text-before-edge">after session is valid</text></g><g transform="translate(1459 109.7612895023031) rotate(0 275.19970703125 75)"><text x="0" y="0" font-family="Virgil, Segoe UI Emoji" font-size="20px" fill="#e03131" text-anchor="start" style="white-space: pre;" direction="ltr" dominant-baseline="text-before-edge">* img_upload</text><text x="0" y="25" font-family="Virgil, Segoe UI Emoji" font-size="20px" fill="#e03131" text-anchor="start" style="white-space: pre;" direction="ltr" dominant-baseline="text-before-edge">    make sure you store the token recieved during login</text><text x="0" y="50" font-family="Virgil, Segoe UI Emoji" font-size="20px" fill="#e03131" text-anchor="start" style="white-space: pre;" direction="ltr" dominant-baseline="text-before-edge">    aka login is mandatory</text><text x="0" y="75" font-family="Virgil, Segoe UI Emoji" font-size="20px" fill="#e03131" text-anchor="start" style="white-space: pre;" direction="ltr" dominant-baseline="text-before-edge">* get_pred</text><text x="0" y="100" font-family="Virgil, Segoe UI Emoji" font-size="20px" fill="#e03131" text-anchor="start" style="white-space: pre;" direction="ltr" dominant-baseline="text-before-edge">    make sure you have token</text><text x="0" y="125" font-family="Virgil, Segoe UI Emoji" font-size="20px" fill="#e03131" text-anchor="start" style="white-space: pre;" direction="ltr" dominant-baseline="text-before-edge">    aka login is mandatory for these</text></g><g mask="url(#mask-doyhD1e0tcmDJv4WqzhP5)" stroke-linecap="round"><g transform="translate(510 190.7612895023031) rotate(0 230 0)"><path d="M0 0 C180 0, 360 0, 460 0 M0 0 C181.82 0, 363.65 0, 460 0" stroke="#1e1e1e" stroke-width="2" fill="none"></path></g><g transform="translate(510 190.7612895023031) rotate(0 230 0)"><path d="M460 0 L446.41 6.34 L446.41 -6.34 L460 0" stroke="none" stroke-width="0" fill="#1e1e1e" fill-rule="evenodd"></path><path d="M460 0 C454.68 2.48, 449.36 4.96, 446.41 6.34 M460 0 C454.63 2.51, 449.25 5.01, 446.41 6.34 M446.41 6.34 C446.41 3.41, 446.41 0.47, 446.41 -6.34 M446.41 6.34 C446.41 3.43, 446.41 0.52, 446.41 -6.34 M446.41 -6.34 C451.35 -4.03, 456.29 -1.73, 460 0 M446.41 -6.34 C450.62 -4.37, 454.84 -2.41, 460 0 M460 0 C460 0, 460 0, 460 0 M460 0 C460 0, 460 0, 460 0" stroke="#1e1e1e" stroke-width="2" fill="none"></path></g></g><mask id="mask-doyhD1e0tcmDJv4WqzhP5"><rect x="0" y="0" fill="#fff" width="1070" height="290.7612895023031"></rect><rect x="663.840087890625" y="178.26128950230304" fill="#000" width="152.31982421875" height="25" opacity="1"></rect></mask><g transform="translate(663.840087890625 178.2612895023031) rotate(0 76.159912109375 12.5)"><text x="76.159912109375" y="0" font-family="Virgil, Segoe UI Emoji" font-size="20px" fill="#1e1e1e" text-anchor="middle" style="white-space: pre;" direction="ltr" dominant-baseline="text-before-edge">/account/signup</text></g><g mask="url(#mask-wJHjn2tizbQOVxLqqLtVK)" stroke-linecap="round"><g transform="translate(510 310.7612895023031) rotate(0 230 0)"><path d="M0 0 C129.87 0, 259.75 0, 460 0 M0 0 C95.76 0, 191.52 0, 460 0" stroke="#1e1e1e" stroke-width="2" fill="none"></path></g><g transform="translate(510 310.7612895023031) rotate(0 230 0)"><path d="M460 0 L446.41 6.34 L446.41 -6.34 L460 0" stroke="none" stroke-width="0" fill="#1e1e1e" fill-rule="evenodd"></path><path d="M460 0 C456.16 1.79, 452.32 3.58, 446.41 6.34 M460 0 C457.17 1.32, 454.34 2.64, 446.41 6.34 M446.41 6.34 C446.41 2.57, 446.41 -1.2, 446.41 -6.34 M446.41 6.34 C446.41 2.29, 446.41 -1.77, 446.41 -6.34 M446.41 -6.34 C451.35 -4.03, 456.29 -1.73, 460 0 M446.41 -6.34 C451.48 -3.97, 456.56 -1.61, 460 0 M460 0 C460 0, 460 0, 460 0 M460 0 C460 0, 460 0, 460 0" stroke="#1e1e1e" stroke-width="2" fill="none"></path></g></g><mask id="mask-wJHjn2tizbQOVxLqqLtVK"><rect x="0" y="0" fill="#fff" width="1070" height="410.7612895023031"></rect><rect x="671.710075378418" y="298.26128950230304" fill="#000" width="136.57984924316406" height="25" opacity="1"></rect></mask><g transform="translate(671.710075378418 298.26128950230304) rotate(0 68.28992462158203 12.5)"><text x="68.28992462158203" y="0" font-family="Virgil, Segoe UI Emoji" font-size="20px" fill="#1e1e1e" text-anchor="middle" style="white-space: pre;" direction="ltr" dominant-baseline="text-before-edge">/account/login</text></g><g mask="url(#mask-NKafrGYK7oX27haogloDf)" stroke-linecap="round"><g transform="translate(510 450.7612895023031) rotate(0 230 0)"><path d="M0 0 C110.16 0, 220.31 0, 460 0 M0 0 C161.45 0, 322.89 0, 460 0" stroke="#1e1e1e" stroke-width="2" fill="none"></path></g><g transform="translate(510 450.7612895023031) rotate(0 230 0)"><path d="M460 0 L446.41 6.34 L446.41 -6.34 L460 0" stroke="none" stroke-width="0" fill="#1e1e1e" fill-rule="evenodd"></path><path d="M460 0 C456.74 1.52, 453.49 3.04, 446.41 6.34 M460 0 C455.23 2.22, 450.46 4.45, 446.41 6.34 M446.41 6.34 C446.41 2.28, 446.41 -1.79, 446.41 -6.34 M446.41 6.34 C446.41 2.4, 446.41 -1.54, 446.41 -6.34 M446.41 -6.34 C449.43 -4.93, 452.46 -3.52, 460 0 M446.41 -6.34 C450.1 -4.61, 453.8 -2.89, 460 0 M460 0 C460 0, 460 0, 460 0 M460 0 C460 0, 460 0, 460 0" stroke="#1e1e1e" stroke-width="2" fill="none"></path></g></g><mask id="mask-NKafrGYK7oX27haogloDf"><rect x="0" y="0" fill="#fff" width="1070" height="550.761289502303"></rect><rect x="673.1900863647461" y="438.26128950230304" fill="#000" width="133.6198272705078" height="25" opacity="1"></rect></mask><g transform="translate(673.1900863647461 438.26128950230304) rotate(0 66.8099136352539 12.5)"><text x="66.8099136352539" y="0" font-family="Virgil, Segoe UI Emoji" font-size="20px" fill="#1e1e1e" text-anchor="middle" style="white-space: pre;" direction="ltr" dominant-baseline="text-before-edge">/image/upload</text></g><g mask="url(#mask-cC_oj6sNegUg3-5Pu8_eM)" stroke-linecap="round"><g transform="translate(510 610.761289502303) rotate(0 230 0)"><path d="M0 0 C176.38 0, 352.76 0, 460 0 M0 0 C167.57 0, 335.13 0, 460 0" stroke="#1e1e1e" stroke-width="2" fill="none"></path></g><g transform="translate(510 610.761289502303) rotate(0 230 0)"><path d="M460 0 L446.41 6.34 L446.41 -6.34 L460 0" stroke="none" stroke-width="0" fill="#1e1e1e" fill-rule="evenodd"></path><path d="M460 0 C454.79 2.43, 449.57 4.86, 446.41 6.34 M460 0 C455.05 2.31, 450.1 4.62, 446.41 6.34 M446.41 6.34 C446.41 3.6, 446.41 0.86, 446.41 -6.34 M446.41 6.34 C446.41 2.97, 446.41 -0.41, 446.41 -6.34 M446.41 -6.34 C451.66 -3.89, 456.91 -1.44, 460 0 M446.41 -6.34 C449.71 -4.8, 453.02 -3.25, 460 0 M460 0 C460 0, 460 0, 460 0 M460 0 C460 0, 460 0, 460 0" stroke="#1e1e1e" stroke-width="2" fill="none"></path></g></g><mask id="mask-cC_oj6sNegUg3-5Pu8_eM"><rect x="0" y="0" fill="#fff" width="1070" height="710.761289502303"></rect><rect x="665.0500793457031" y="598.261289502303" fill="#000" width="149.89984130859375" height="25" opacity="1"></rect></mask><g transform="translate(665.0500793457031 598.261289502303) rotate(0 74.94992065429688 12.5)"><text x="74.94992065429688" y="0" font-family="Virgil, Segoe UI Emoji" font-size="20px" fill="#1e1e1e" text-anchor="middle" style="white-space: pre;" direction="ltr" dominant-baseline="text-before-edge">/recommend/get</text></g><g transform="translate(1038.9672664634895 687) rotate(0 293.26971435546875 12.5)"><text x="0" y="0" font-family="Virgil, Segoe UI Emoji" font-size="20px" fill="#1e1e1e" text-anchor="start" style="white-space: pre;" direction="ltr" dominant-baseline="text-before-edge">it wll be hosted in http://lb-backend:&lt;port&gt;   -&gt; Docker env</text></g><g stroke-linecap="round" transform="translate(1310 310.7612895023031) rotate(0 150 120)"><path d="M0 0 C118.13 0, 236.27 0, 300 0 M300 0 C300 69.98, 300 139.96, 300 240 M300 240 C194.64 240, 89.27 240, 0 240 M0 240 C0 183.41, 0 126.81, 0 0" stroke="#1e1e1e" stroke-width="2.5" fill="none" stroke-dasharray="8 10"></path></g><g transform="translate(1404.4757690429688 413.2612895023031) rotate(0 55.52423095703125 17.5)"><text x="55.52423095703125" y="0" font-family="Virgil, Segoe UI Emoji" font-size="28px" fill="#1e1e1e" text-anchor="middle" style="white-space: pre;" direction="ltr" dominant-baseline="text-before-edge">Backend</text></g><g stroke-linecap="round"><g transform="translate(1310 430.7612895023031) rotate(0 -70 0)"><path d="M0 0 C-33.28 0, -66.56 0, -140 0" stroke="#1e1e1e" stroke-width="2.5" fill="none" stroke-dasharray="8 10"></path></g><g transform="translate(1310 430.7612895023031) rotate(0 -70 0)"><path d="M0 0 L-13.59 6.34 L-13.59 -6.34 L0 0" stroke="none" stroke-width="0" fill="#1e1e1e" fill-rule="evenodd"></path><path d="M0 0 C-3.23 1.51, -6.46 3.01, -13.59 6.34 M-13.59 6.34 C-13.59 2.5, -13.59 -1.33, -13.59 -6.34 M-13.59 -6.34 C-9.27 -4.32, -4.95 -2.31, 0 0 M0 0 C0 0, 0 0, 0 0" stroke="#1e1e1e" stroke-width="2.5" fill="none"></path></g><g transform="translate(1310 430.7612895023031) rotate(0 -70 0)"><path d="M-140 0 L-126.41 -6.34 L-126.41 6.34 L-140 0" stroke="none" stroke-width="0" fill="#1e1e1e" fill-rule="evenodd"></path><path d="M-140 0 C-136.77 -1.51, -133.54 -3.01, -126.41 -6.34 M-126.41 -6.34 C-126.41 -2.5, -126.41 1.33, -126.41 6.34 M-126.41 6.34 C-130.73 4.32, -135.05 2.31, -140 0 M-140 0 C-140 0, -140 0, -140 0" stroke="#1e1e1e" stroke-width="2.5" fill="none"></path></g></g><mask></mask><g transform="translate(339.9672664634895 762) rotate(0 285.9792175292969 35)"><text x="0" y="0" font-family="Virgil, Segoe UI Emoji" font-size="28px" fill="#1e1e1e" text-anchor="start" style="white-space: pre;" direction="ltr" dominant-baseline="text-before-edge">for more info refer to the src/ directory</text><text x="0" y="35" font-family="Virgil, Segoe UI Emoji" font-size="28px" fill="#1e1e1e" text-anchor="start" style="white-space: pre;" direction="ltr" dominant-baseline="text-before-edge">and api/openapiv3.yaml for api references</text></g><g transform="translate(756.9672664634895 10) rotate(0 95.64840698242188 17.5)"><text x="0" y="0" font-family="Virgil, Segoe UI Emoji" font-size="28px" fill="#1e1e1e" text-anchor="start" style="white-space: pre;" direction="ltr" dominant-baseline="text-before-edge">Major Project</text></g></svg>